<svg width="41" height="40" viewBox="0 0 41 40" fill="none" xmlns="http://www.w3.org/2000/svg">
<path d="M19.9253 22.1673C11.6468 22.5919 7.05489 23.3054 0.807251 25.236C1.30428 25.2013 20.5347 25.7206 35.9235 32.2242C37.8531 29.738 39.2048 26.7877 39.7858 23.5675C35.2809 22.644 25.5952 21.8753 19.9253 22.1657V22.1673Z" fill="#B0CAC1"/>
<path d="M40.0121 21.97C40.0754 21.3212 40.1103 20.6646 40.1103 19.9984C40.1103 8.95343 31.1306 0 20.0551 0C8.9797 0 0 8.95343 0 20C0 21.1697 0.106053 22.3141 0.299165 23.4286C2.90934 22.6788 5.81393 22.0426 8.91797 21.5533C8.84674 21.045 8.79767 20.5288 8.79767 20C8.79767 13.7995 13.8376 8.77506 20.0536 8.77506C26.2695 8.77506 31.3094 13.8011 31.3094 20C31.3094 20.2684 31.2873 20.5304 31.2699 20.794C34.3422 21.0545 37.2769 21.4538 40.0105 21.9716L40.0121 21.97Z" fill="#62BB46"/>
<path d="M10.5452 25.9889C15.134 26.5399 20.8656 27.4822 26.67 29.0671C28.8386 27.4917 30.4199 25.1681 31.0277 22.4704C27.1117 22.161 22.9471 22.0126 19.9238 22.1673C15.6263 22.3883 12.3244 22.6882 9.26624 23.1934C9.56382 24.191 9.99911 25.1271 10.5452 25.9874V25.9889Z" fill="#D8E6DC"/>
<path d="M33.2073 35.0908C29.0633 34.7735 24.6091 34.6504 20.2546 34.9029C15.6436 35.1697 11.8004 35.7143 8.52698 36.3599C11.7893 38.6504 15.7639 40 20.0551 40C25.0887 40 29.6854 38.1452 33.2073 35.0908Z" fill="#407B6B"/>
<path d="M1.40246 27.3465C2.55797 30.262 4.37828 32.8429 6.67979 34.8982C10.5072 33.9653 16.7659 33.2439 21.0271 33.0197C25.7361 32.7735 29.4796 32.7088 33.7329 33.1744C22.9202 28.9787 11.3746 27.3891 1.40088 27.3449L1.40246 27.3465Z" fill="#82ADA1"/>
</svg>
